<svg width="1920" height="4183" viewBox="0 0 1920 4183" fill="none" xmlns="http://www.w3.org/2000/svg">
<rect y="0.5" width="1920" height="4181.58" fill="#D9D9D9"/>
<mask id="mask0_67_2329" style="mask-type:alpha" maskUnits="userSpaceOnUse" x="0" y="0" width="1920" height="4183">
<rect y="0.5" width="1920" height="4181.58" fill="#D9D9D9"/>
</mask>
<g mask="url(#mask0_67_2329)">
<path d="M1039.65 -77.4141C1085.31 41.6427 1125.87 231.487 1096.79 419.356C1066.85 612.759 961.219 808.026 715.245 908.38C518.548 988.63 444.575 1186.85 473.253 1403.96C493.417 1556.61 561.027 1691.48 648.539 1775.34C660.01 1743.77 674.981 1715.57 693.335 1690.7C789.484 1560.41 944.4 1561.66 1041.58 1610.03C1100.98 1639.59 1142.47 1692.89 1164.65 1747.32C1186.91 1801.94 1194.92 1870.59 1170.06 1935.68C1143.38 2005.54 1084.35 2056.47 1002.77 2077.05C955.678 2088.93 902.145 2090.65 842.469 2082.77C850.24 2126.76 862.027 2177.08 879.003 2234.49C951.039 2478.1 1103.28 2612.35 1262.13 2679.83C1283.46 2688.89 1304.88 2696.72 1326.19 2703.44C1347.37 2578.21 1403.91 2451.02 1526.1 2381.59C1609.22 2334.37 1696.43 2333.44 1770.42 2369.62C1839.92 2403.59 1888.59 2465.47 1915.09 2529.7C1941.65 2594.07 1950.62 2672.04 1926.77 2745.36C1901.56 2822.82 1842.11 2886.42 1751.13 2915.79C1689.97 2935.54 1615.18 2946.45 1533.6 2945.8C1545.79 3022.23 1569.06 3089.12 1595.02 3129.88C1620.35 3169.65 1632.53 3218.39 1638.33 3263.56C1644.38 3310.69 1644.64 3363.38 1639.8 3417.64C1630.17 3525.72 1599.48 3649.15 1543.8 3759.37C1488.43 3868.99 1403.63 3974.42 1281.02 4030.67C1154.65 4088.63 1005.13 4086.6 839.625 4011.87C640.459 3921.95 495.996 3951.62 393.531 4013.77C284.763 4079.74 212.658 4189.38 181.393 4269.14L84.1006 4231L-13.1914 4192.86C30.4689 4081.48 128.128 3930.31 285.142 3835.07C448.459 3736.01 665.798 3704.07 925.633 3821.39C1047.01 3876.19 1132.49 3868.86 1193.88 3840.7C1259.03 3810.81 1314.74 3749.29 1357.25 3665.14C1399.46 3581.58 1424.02 3484.41 1431.63 3399.08C1435.41 3356.63 1434.79 3319.41 1431.03 3290.18C1427.03 3258.98 1420.48 3244.9 1418.73 3242.15C1366.33 3159.88 1331.06 3040.58 1319.64 2918.55C1273.21 2907.07 1226.46 2891.75 1180.42 2872.19C969.211 2782.48 769.835 2602.36 678.581 2293.75C647.819 2189.72 629.623 2097.02 623.333 2015.38C422.848 1905.37 296.591 1662.52 266.053 1431.33C229.985 1158.28 320.321 843.779 636.294 714.866C800.456 647.89 869.038 524.422 890.251 387.385C912.321 244.815 880.975 92.5121 844.509 -2.58398L1039.65 -77.4141ZM1678.63 2557.38C1668.79 2552.57 1654.55 2549 1629.35 2563.31C1582.52 2589.92 1547.21 2649.4 1532.33 2736.77C1593.55 2737.53 1647.19 2729.73 1686.92 2716.9C1714.44 2708.01 1723.65 2694.11 1728.02 2680.69C1733.74 2663.12 1733.2 2636.82 1721.89 2609.4C1710.51 2581.83 1692.96 2564.39 1678.63 2557.38ZM948.459 1797.13C916.959 1781.46 882.117 1786.87 861.5 1814.8C853.294 1825.92 844.489 1843.71 838.246 1870.27C895.164 1881.7 931.194 1879.56 951.648 1874.4C973.812 1868.81 974.775 1861.22 974.816 1861.11C976.678 1856.24 978.148 1843.49 971.103 1826.2C963.98 1808.72 953.397 1799.59 948.459 1797.13Z" fill="#009DFF"/>
</g>
<path d="M917.5 315C923.833 313.5 936.7 307.6 937.5 296C939 315 956 316 961.5 296C965.5 315 976.5 315.5 983 299.5C989.8 309.1 998.5 316.167 1002 318.5" stroke="white" stroke-width="6"/>
<path d="M881 673C887.333 671.5 900.2 665.6 901 654C902.5 673 919.5 674 925 654C929 673 940 673.5 946.5 657.5C953.3 667.1 962 674.167 965.5 676.5" stroke="white" stroke-width="6"/>
<path d="M320 1063C326.333 1061.5 339.2 1055.6 340 1044C341.5 1063 358.5 1064 364 1044C368 1063 379 1063.5 385.5 1047.5C392.3 1057.1 401 1064.17 404.5 1066.5" stroke="white" stroke-width="6"/>
<path d="M405 1574C411.333 1572.5 424.2 1566.6 425 1555C426.5 1574 443.5 1575 449 1555C453 1574 464 1574.5 470.5 1558.5C477.3 1568.1 486 1575.17 489.5 1577.5" stroke="white" stroke-width="6"/>
<path d="M1023 1741C1029.33 1739.5 1042.2 1733.6 1043 1722C1044.5 1741 1061.5 1742 1067 1722C1071 1741 1082 1741.5 1088.5 1725.5C1095.3 1735.1 1104 1742.17 1107.5 1744.5" stroke="white" stroke-width="6"/>
<path d="M695 2205C701.333 2203.5 714.2 2197.6 715 2186C716.5 2205 733.5 2206 739 2186C743 2205 754 2205.5 760.5 2189.5C767.3 2199.1 776 2206.17 779.5 2208.5" stroke="white" stroke-width="6"/>
<path d="M1047 2611C1053.33 2609.5 1066.2 2603.6 1067 2592C1068.5 2611 1085.5 2612 1091 2592C1095 2611 1106 2611.5 1112.5 2595.5C1119.3 2605.1 1128 2612.17 1131.5 2614.5" stroke="white" stroke-width="6"/>
<path d="M1758 2724C1764.33 2722.5 1777.2 2716.6 1778 2705C1779.5 2724 1796.5 2725 1802 2705C1806 2724 1817 2724.5 1823.5 2708.5C1830.3 2718.1 1839 2725.17 1842.5 2727.5" stroke="white" stroke-width="6"/>
<path d="M1484 3190C1490.33 3188.5 1503.2 3182.6 1504 3171C1505.5 3190 1522.5 3191 1528 3171C1532 3190 1543 3190.5 1549.5 3174.5C1556.3 3184.1 1565 3191.17 1568.5 3193.5" stroke="white" stroke-width="6"/>
<path d="M1384 3682C1390.33 3680.5 1403.2 3674.6 1404 3663C1405.5 3682 1422.5 3683 1428 3663C1432 3682 1443 3682.5 1449.5 3666.5C1456.3 3676.1 1465 3683.17 1468.5 3685.5" stroke="white" stroke-width="6"/>
<path d="M564 3834C570.333 3832.5 583.2 3826.6 584 3815C585.5 3834 602.5 3835 608 3815C612 3834 623 3834.5 629.5 3818.5C636.3 3828.1 645 3835.17 648.5 3837.5" stroke="white" stroke-width="6"/>
</svg>
